<?xml version="1.0" encoding="utf-8"?> <!-- Generator: IcoMoon --> <!DOCTYPE svg PUBLIC "-//W3C//DTD SVG 1.1//EN" "http://www.w3.org/Graphics/SVG/1.1/DTD/svg11.dtd"> <svg width="1916" height="2048" viewBox="0 0 1916 2048" fill="#0"><path d="M0.00,795.00q0.00-119.00 61.50-222.50t 167.00-180.50t 246.50-122.00t 303.00-45.00t 303.50,45.00t 247.00,122.00t 166.50,180.50t 61.00,222.50q0.00,117.00 -61.00,221.00t-166.50,181.00t-247.00,122.00t-303.50,45.00q-37.00,0.00 -73.50-3.00t-71.50-7.00q-147.00,113.00 -336.00,155.00q-20.00,4.00 -40.50,7.50t-43.50,7.50q-12.00,2.00 -21.50-6.50t-13.50-18.50l0.00-2.00 q-4.00-12.00 3.00-19.50t 18.00-17.50q 18.00-18.00 34.50-36.50t 29.50-42.00t 24.50-55.50t 19.50-79.00q-141.00-78.00 -224.00-195.50t-83.00-256.50zM 649.00,1534.00q 6.00-4.00 13.50-8.00t 13.50-8.00q 51.00,6.00 102.00,6.00q 197.00,0.00 369.00-56.50t 298.00-155.00t 198.50-231.50t 72.50-286.00q0.00-41.00 -6.00-84.00q 96.00,78.00 151.50,175.00t 55.50,208.00q0.00,139.00 -83.00,256.50t-224.00,195.50 q 8.00,47.00 19.00,79.00t 25.50,55.50t 30.00,42.00t 33.50,36.50q 10.00,10.00 17.50,18.50t 3.50,18.50l0.00,2.00 q-2.00,12.00 -12.50,19.50t-22.50,5.50q-23.00-4.00 -43.50-7.50t-40.50-7.50q-96.00-20.00 -180.00-60.00t-156.00-95.00q-35.00,4.00 -71.50,7.00t-73.50,3.00q-141.00,0.00 -265.00-35.00t-225.00-94.00z" ></path></svg>