<?xml version="1.0" encoding="utf-8"?> <!-- Generator: IcoMoon --> <!DOCTYPE svg PUBLIC "-//W3C//DTD SVG 1.1//EN" "http://www.w3.org/Graphics/SVG/1.1/DTD/svg11.dtd"> <svg width="1843" height="2048" viewBox="0 0 1843 2048" fill="#0"><path d="M0.00,1059.50q0.00-33.50 23.00-55.50l 174.00-175.00q 23.00-23.00 56.50-22.50t 55.50,22.50l 365.00,365.00q 23.00,23.00 56.50,23.00t 55.50-23.00l 746.00-745.00q 23.00-23.00 56.50-23.00t 56.50,23.00l 174.00,174.00q 23.00,23.00 22.50,56.50t-22.50,55.50l-910.00,910.00q-23.00,23.00 -62.50,39.00t-72.50,16.00l-88.00,0.00 q-35.00,0.00 -75.00-16.50t-62.00-38.50l-526.00-529.00 q-23.00-23.00 -23.00-56.50z" ></path></svg>