<?xml version="1.0" encoding="utf-8"?> <!-- Generator: IcoMoon --> <!DOCTYPE svg PUBLIC "-//W3C//DTD SVG 1.1//EN" "http://www.w3.org/Graphics/SVG/1.1/DTD/svg11.dtd"> <svg width="1843" height="2048" viewBox="0 0 1843 2048" fill="#0"><path d="M0.00,1714.00l0.00-270.00 q0.00-33.00 22.50-54.50t 55.50-21.50l 358.00,0.00 q 31.00,0.00 53.50,21.50t 22.50,54.50l0.00,270.00 q0.00,33.00 -22.50,55.50t-53.50,22.50l-358.00,0.00 q-33.00,0.00 -55.50-22.50t-22.50-55.50zM0.00,1137.00l0.00-226.00 q0.00-33.00 22.50-54.00t 55.50-21.00l 358.00,0.00 q 31.00,0.00 53.50,21.50t 22.50,53.50l0.00,226.00 q0.00,33.00 -22.50,55.00t-53.50,22.00l-358.00,0.00 q-33.00,0.00 -55.50-22.50 t-22.50-54.50zM0.00,604.00l0.00-272.00 q0.00-31.00 22.50-53.50t 55.50-22.50l 358.00,0.00 q 31.00,0.00 53.50,22.50t 22.50,53.50l0.00,272.00 q0.00,33.00 -22.50,55.50t-53.50,22.50l-358.00,0.00 q-33.00,0.00 -55.50-22.50t-22.50-55.50zM 666.00,1714.00l0.00-270.00 q0.00-33.00 22.50-54.50t 54.50-21.50l 359.00,0.00 q 31.00,0.00 53.50,21.50t 22.50,54.50l0.00,270.00 q0.00,33.00 -22.50,55.50t-53.50,22.50 l-359.00,0.00 q-33.00,0.00 -55.00-22.50t-22.00-55.50zM 666.00,1137.00l0.00-226.00 q0.00-33.00 22.50-54.00t 54.50-21.00l 359.00,0.00 q 31.00,0.00 53.50,21.50t 22.50,53.50l0.00,226.00 q0.00,33.00 -22.50,55.00t-53.50,22.00l-359.00,0.00 q-33.00,0.00 -55.00-22.50t-22.00-54.50zM 666.00,604.00l0.00-272.00 q0.00-31.00 22.50-53.50t 54.50-22.50l 359.00,0.00 q 31.00,0.00 53.50,22.50t 22.50,53.50l0.00,272.00 q0.00,33.00 -22.50,55.50 t-53.50,22.50l-359.00,0.00 q-33.00,0.00 -55.00-22.50t-22.00-55.50zM 1331.00,1714.00l0.00-270.00 q0.00-33.00 22.50-54.50t 55.50-21.50l 358.00,0.00 q 31.00,0.00 53.50,21.50t 22.50,54.50l0.00,270.00 q0.00,33.00 -22.50,55.50t-53.50,22.50l-358.00,0.00 q-33.00,0.00 -55.50-22.50t-22.50-55.50zM 1331.00,1137.00l0.00-226.00 q0.00-33.00 22.50-54.00t 55.50-21.00l 358.00,0.00 q 31.00,0.00 53.50,21.50t 22.50,53.50l0.00,226.00 q0.00,33.00 -22.50,55.00t-53.50,22.00l-358.00,0.00 q-33.00,0.00 -55.50-22.50t-22.50-54.50zM 1331.00,604.00l0.00-272.00 q0.00-31.00 22.50-53.50t 55.50-22.50l 358.00,0.00 q 31.00,0.00 53.50,22.50t 22.50,53.50l0.00,272.00 q0.00,33.00 -22.50,55.50t-53.50,22.50l-358.00,0.00 q-33.00,0.00 -55.50-22.50t-22.50-55.50z" ></path></svg>