<?xml version="1.0" encoding="utf-8"?> <!-- Generator: IcoMoon --> <!DOCTYPE svg PUBLIC "-//W3C//DTD SVG 1.1//EN" "http://www.w3.org/Graphics/SVG/1.1/DTD/svg11.dtd"> <svg width="1843" height="2048" viewBox="0 0 1843 2048" fill="#0"><path d="M 2.00,1757.00l 594.00-1466.00q 6.00-14.00 21.50-24.50t 31.50-10.50l 195.00,0.00 l-8.00,170.00l 172.00,0.00 l-9.00-170.00l 195.00,0.00 q 16.00,0.00 31.50,10.00t 21.50,25.00l 594.00,1466.00q 6.00,14.00 -1.00,24.50t-23.00,10.50l-740.00,0.00 l-26.00-512.00l-258.00,0.00 l-27.00,512.00l-739.00,0.00 q-16.00,0.00 -23.50-10.00t-1.50-25.00zM 807.00,995.00l 229.00,0.00 l-20.00-413.00l-189.00,0.00 z" ></path></svg>