<?xml version="1.0" encoding="utf-8"?> <!-- Generator: IcoMoon --> <!DOCTYPE svg PUBLIC "-//W3C//DTD SVG 1.1//EN" "http://www.w3.org/Graphics/SVG/1.1/DTD/svg11.dtd"> <svg width="1843" height="2048" viewBox="0 0 1843 2048" fill="#0"><path d="M0.00,1714.00l0.00-383.00 q0.00-33.00 22.50-55.50t 55.50-22.50l 133.00,0.00 l0.00-153.00 q0.00-55.00 40.00-94.00t 95.00-39.00l 518.00,0.00 l0.00-174.00 l-135.00,0.00 q-31.00,0.00 -53.50-21.50t-22.50-54.50l0.00-385.00 q0.00-31.00 22.50-53.50t 53.50-22.50l 385.00,0.00 q 31.00,0.00 53.50,22.50t 22.50,53.50l0.00,385.00 q0.00,33.00 -22.50,54.50t-53.50,21.50l-135.00,0.00 l0.00,174.00 l 518.00,0.00 q 55.00,0.00 95.00,38.50t 40.00,94.50l0.00,153.00 l 135.00,0.00 q 31.00,0.00 53.50,22.50t 22.50,55.50l0.00,383.00 q0.00,33.00 -22.50,55.50t-53.50,22.50l-385.00,0.00 q-33.00,0.00 -54.00-22.50t-21.00-55.50l0.00-383.00 q0.00-33.00 21.50-55.50t 53.50-22.50l 136.00,0.00 l0.00-153.00 q0.00-18.00 -21.00-19.00l-518.00,0.00 l0.00,172.00 l 135.00,0.00 q 31.00,0.00 53.50,22.50t 22.50,55.50l0.00,383.00 q0.00,33.00 -22.50,55.50t-53.50,22.50l-385.00,0.00 q-31.00,0.00 -53.50-22.50t-22.50-55.50l0.00-383.00 q0.00-33.00 22.50-55.50t 53.50-22.50l 135.00,0.00 l0.00-172.00 l-518.00,0.00 q-20.00,0.00 -20.00,19.00l0.00,153.00 l 135.00,0.00 q 33.00,0.00 55.50,22.50t 22.50,55.50l0.00,383.00 q0.00,33.00 -22.50,55.50t-55.50,22.50l-383.00,0.00 q-33.00,0.00 -55.50-22.50t-22.50-55.50z" ></path></svg>