<?xml version="1.0" encoding="utf-8"?> <!-- Generator: IcoMoon --> <!DOCTYPE svg PUBLIC "-//W3C//DTD SVG 1.1//EN" "http://www.w3.org/Graphics/SVG/1.1/DTD/svg11.dtd"> <svg width="1843" height="2048" viewBox="0 0 1843 2048" fill="#0"><path d="M0.00,1485.00l0.00-922.00 q0.00-63.00 24.50-119.50t 65.50-97.50t 97.50-65.50t 119.50-24.50l 1075.00,0.00 q 27.00,0.00 52.00,6.00l-187.00,187.00l-940.00,0.00 q-47.00,0.00 -80.50,33.50t-33.50,80.50l0.00,922.00 q0.00,47.00 33.50,80.50t 80.50,33.50l 1075.00,0.00 q 47.00,0.00 81.00-33.50t 34.00-80.50l0.00-326.00 l 193.00-192.00l0.00,518.00 q0.00,63.00 -25.00,118.50t-67.00,97.50t-97.00,66.50t-119.00,24.50l-1075.00,0.00 q-63.00,0.00 -119.50-24.50t-97.50-66.50t-65.50-97.50t-24.50-118.50zM 385.00,825.50q0.00-32.50 23.00-55.50l 98.00-98.00q 23.00-23.00 55.50-23.00t 54.50,23.00l 340.00,340.00l 654.00-656.00q 23.00-23.00 56.50-22.50t 55.50,22.50l 99.00,99.00q 23.00,23.00 22.50,55.50t-22.50,54.50l-711.00,711.00l-98.00,98.00q-23.00,23.00 -55.50,23.00t-55.50-23.00l-100.00-98.00l-393.00-395.00 q-23.00-23.00 -23.00-55.50z" ></path></svg>