<?xml version="1.0" encoding="utf-8"?> <!-- Generator: IcoMoon --> <!DOCTYPE svg PUBLIC "-//W3C//DTD SVG 1.1//EN" "http://www.w3.org/Graphics/SVG/1.1/DTD/svg11.dtd"> <svg width="1597" height="2048" viewBox="0 0 1597 2048" fill="#0"><path d="M0.00,1024.00q0.00-166.00 62.50-311.50t 171.00-254.00t 254.00-171.00t 311.50-62.50t 311.00,62.50t 254.00,171.00t 171.00,254.00t 62.00,311.50t-62.00,311.50t-171.00,254.00t-254.00,171.00t-311.00,62.50t-311.50-62.50t-254.00-171.00t-171.00-254.00t-62.50-311.50zM 240.00,1024.00q0.00,117.00 44.00,218.00t 119.50,177.00t 177.00,120.00t 218.50,44.00t 218.00-44.00t 177.00-120.00t 120.00-177.00 t 44.00-218.00t-44.00-218.00t-120.00-177.00t-177.50-120.00t-217.50-44.00q-117.00,0.00 -218.50,44.00t-177.00,120.00t-119.50,177.00t-44.00,218.00zM 635.00,1184.00l0.00-465.00 q0.00-33.00 23.50-56.50t 56.50-23.50l 80.00,0.00 q 35.00,0.00 57.00,23.50t 22.00,56.50l0.00,305.00 l 201.00,0.00 q 33.00,0.00 56.50,23.50t 23.50,56.50l0.00,80.00 q0.00,33.00 -23.50,56.50t-56.50,23.50l-360.00,0.00 q-33.00,0.00 -56.50-23.50 t-23.50-56.50z" ></path></svg>