<?xml version="1.0" encoding="utf-8"?> <!-- Generator: IcoMoon --> <!DOCTYPE svg PUBLIC "-//W3C//DTD SVG 1.1//EN" "http://www.w3.org/Graphics/SVG/1.1/DTD/svg11.dtd"> <svg width="1916" height="2048" viewBox="0 0 1916 2048" fill="#0"><path d="M0.00,795.00q0.00-98.00 40.00-182.50t 106.50-151.00t 150.50-113.50t 170.00-76.00q 76.00-25.00 154.50-36.00t 156.50-11.00q 80.00,0.00 159.00,11.50t 155.00,35.50q 86.00,29.00 170.00,76.00t 149.50,113.50t 105.00,150.50t 39.50,183.00q0.00,98.00 -39.50,182.00t-105.00,149.50t-149.50,113.50t-170.00,77.00q-154.00,47.00 -314.00,47.00q-37.00,0.00 -72.50-3.00t-72.50-7.00 q-150.00,115.00 -336.00,155.00q-20.00,4.00 -43.00,9.50t-45.00,5.50q-12.00,0.00 -21.50-9.50t-9.50-23.50q0.00-10.00 7.50-17.50l 13.50-13.50q 51.00-51.00 72.50-96.00t 35.50-117.00q-63.00-35.00 -118.50-82.00t-97.50-104.00t-66.50-124.00t-24.50-142.00zM 160.00,795.00q0.00,72.00 30.50,127.00t 77.50,99.00t 104.50,78.00t 112.50,64.00l-20.00,111.00q 33.00-18.00 63.50-42.00t 59.50-46.00 q 47.00,6.00 95.00,12.00t 95.00,6.00q 135.00,0.00 264.00-41.00q 61.00-18.00 124.00-52.00t 114.00-81.00t 84.00-105.50t 33.00-129.50q0.00-72.00 -33.00-131.50t-84.00-105.50t-113.50-80.00t-124.50-52.00q-63.00-23.00 -129.50-32.00t-134.50-9.00q-66.00,0.00 -132.00,9.00t-132.00,32.00q-59.00,18.00 -122.50,52.00t-115.00,80.00t-84.00,105.50t-32.50,131.50zM 649.00,1534.00l 27.00-16.00q 51.00,6.00 102.00,6.00 q 197.00,0.00 381.00-62.00q 111.00-37.00 211.00-99.50t 177.00-147.50t 123.00-190.00t 46.00-230.00q0.00-41.00 -6.00-84.00q 90.00,72.00 148.50,169.00t 58.50,214.00q0.00,76.00 -24.50,142.50t-66.50,123.50t-97.50,104.00t-118.50,82.00q 14.00,72.00 35.50,117.00t 72.50,96.00q 6.00,6.00 13.50,14.50t 7.50,18.50q0.00,16.00 -10.50,23.50t-24.50,7.50q-20.00,0.00 -43.00-5.50t-41.00-9.50 q-186.00-41.00 -336.00-155.00q-37.00,4.00 -72.50,7.00t-72.50,3.00q-129.00,0.00 -254.00-32.00t-236.00-97.00z" ></path></svg>