<?xml version="1.0" encoding="utf-8"?> <!-- Generator: IcoMoon --> <!DOCTYPE svg PUBLIC "-//W3C//DTD SVG 1.1//EN" "http://www.w3.org/Graphics/SVG/1.1/DTD/svg11.dtd"> <svg width="1916" height="2048" viewBox="0 0 1916 2048" fill="#0"><path d="M0.00,1214.00l0.00-380.00 q0.00-16.00 11.50-27.50t 27.50-11.50l 420.00,0.00 l 325.00-326.00q 49.00-51.00 84.00-37.00t 35.00,86.00l0.00,1012.00 q0.00,72.00 -34.50,86.00t-84.50-37.00l-325.00-326.00l-420.00,0.00 q-16.00,0.00 -27.50-11.00t-11.50-28.00zM 1027.00,1386.00q-9.00-32.00 7.00-61.00q 84.00-145.00 84.00-301.00t-84.00-301.00q-16.00-29.00 -7.00-61.00t 38.00-48.00t 60.50-8.00t 48.50,37.00q 104.00,182.00 104.00,381.00q0.00,201.00 -104.00,381.00 q-23.00,41.00 -70.00,41.00q-20.00,0.00 -39.00-12.00q-29.00-16.00 -38.00-48.00zM 1285.00,1573.00q-7.00-33.00 11.00-62.00q 141.00-225.00 142.00-487.00q0.00-262.00 -142.00-487.00q-18.00-29.00 -11.00-62.00t 36.00-49.00q 29.00-18.00 61.00-11.00t 50.00,36.00q 82.00,131.00 123.50,275.00t 41.50,298.00q0.00,309.00 -167.00,573.00q-10.00,18.00 -29.00,27.50t-37.00,9.50q-25.00,0.00 -43.00-12.00q-29.00-16.00 -36.00-49.00zM 1540.00,1759.00 q-6.00-33.00 12.00-59.00q 100.00-154.00 152.50-325.00t 52.50-351.00t-52.00-351.00t-153.00-323.00q-18.00-29.00 -12.00-61.50t 35.00-50.50q 29.00-16.00 61.00-10.50t 50.00,32.50q 115.00,174.00 173.00,366.50t 58.00,397.50t-58.50,397.50t-172.50,364.50q-10.00,18.00 -29.00,27.50t-37.00,9.50q-25.00,0.00 -45.00-13.00q-29.00-18.00 -35.00-51.00z" ></path></svg>