<?xml version="1.0" encoding="utf-8"?> <!-- Generator: IcoMoon --> <!DOCTYPE svg PUBLIC "-//W3C//DTD SVG 1.1//EN" "http://www.w3.org/Graphics/SVG/1.1/DTD/svg11.dtd"> <svg width="1880" height="2048" viewBox="0 0 1880 2048" fill="#0"><path d="M0.00,940.00l0.00-152.00 q0.00-18.00 1.00-47.50t 10.00-56.50t 29.50-46.50t 57.50-19.50q-45.00-29.00 -71.50-75.50t-26.50-104.50q0.00-43.00 16.50-82.00t 46.00-68.50t 68.50-46.00t 82.00-16.50q 45.00,0.00 84.00,16.50t 67.50,46.00t 46.00,68.50t 17.50,82.00q0.00,57.00 -27.50,104.00t-72.50,76.00q 37.00,0.00 57.50,19.50t 29.50,46.50t 11.00,56.50t 2.00,47.50l0.00,152.00 q-14.00,8.00 -23.50,18.50t-27.50,10.50l-328.00,0.00 q-16.00,0.00 -26.50-10.50t-22.50-18.50zM 158.00,1735.00l0.00-387.00 q0.00-78.00 45.00-138.50t 98.00-109.50q 10.00-10.00 25.50-21.50t 33.50-15.50q 18.00-6.00 41.00-7.00t 45.00-5.00q 61.00-10.00 130.00-19.50t 135.00-19.50q-90.00-57.00 -144.50-151.50t-54.50-207.50q0.00-88.00 34.00-166.50t 92.00-136.00t 136.00-91.50t 166.00-34.00t 166.00,34.00t 136.00,91.50 t 92.00,136.00t 34.00,166.50q0.00,113.00 -54.00,207.00t-145.00,152.00q 66.00,10.00 134.50,19.00t 130.50,20.00q 23.00,4.00 45.00,5.00t 41.00,7.00q 18.00,4.00 33.50,15.50t 27.50,21.50q 66.00,59.00 103.50,116.50t 37.50,131.50l0.00,387.00 q-12.00,6.00 -20.00,13.00t-18.50,14.00t-23.50,14.50t-36.00,15.50l-1368.00,0.00 q-35.00,0.00 -54.50-22.50t-43.50-34.50zM 1452.00,940.00l0.00-152.00 q0.00-18.00 2.00-47.50t 11.50-56.50t 30.00-46.50t 56.50-19.50q-45.00-29.00 -72.50-75.50t-27.50-104.50q0.00-43.00 16.50-82.00t 46.00-68.50t 68.50-46.00t 84.00-16.50q 43.00,0.00 82.00,16.50t 68.50,46.00t 46.00,68.50t 16.50,82.00q0.00,57.00 -26.50,104.00t-71.50,76.00q 37.00,0.00 56.50,19.50t 28.50,46.50t 11.00,56.50t 2.00,47.50l0.00,152.00 q-12.00,8.00 -22.50,18.50 t-26.50,10.50l-328.00,0.00 q-18.00,0.00 -27.50-10.50t-23.50-18.50z" ></path></svg>