<?xml version="1.0" encoding="utf-8"?> <!-- Generator: IcoMoon --> <!DOCTYPE svg PUBLIC "-//W3C//DTD SVG 1.1//EN" "http://www.w3.org/Graphics/SVG/1.1/DTD/svg11.dtd"> <svg width="1710" height="2048" viewBox="0 0 1710 2048" fill="#0"><path d="M 10.00,1481.00q 2.00-16.00 4.00-31.50t 4.00-34.50q0.00-10.00 -4.00-20.50t-2.00-20.50q 2.00-16.00 15.50-31.50t 25.50-35.50q 23.00-37.00 45.50-90.50t 32.50-92.50q 4.00-16.00 -1.00-30.50t-1.00-26.50q 4.00-16.00 16.50-27.50t 20.50-23.50q 10.00-18.00 21.50-42.00t 21.50-49.50t 16.00-50.00t 8.00-40.50t-2.00-33.00t0.00-29.00q 6.00-16.00 20.50-26.50t 24.50-24.50q 10.00-12.00 21.50-34.50t 23.00-49.50t 19.50-52.50 t 10.00-45.50q 2.00-12.00 -4.00-24.50t-2.00-27.50q 4.00-14.00 18.50-29.50t 26.50-31.50q 16.00-25.00 28.50-58.50t 30.00-61.00t 46.00-43.00t 77.50-1.50l-2.00,4.00q 31.00-10.00 54.00-10.00l 780.00,0.00 q 78.00,0.00 119.00,57.00q 41.00,53.00 18.00,129.00l-283.00,906.00q-18.00,63.00 -77.50,107.00t-126.50,44.00l-893.00,0.00 q-10.00,0.00 -20.50,2.00t-18.50,12.00q-12.00,20.00 0.00,56.00q 16.00,43.00 60.00,75.50t 87.00,32.50l 946.00,0.00 q 29.00,0.00 57.50-21.50t 37.50-47.50l 309.00-987.00q 4.00-16.00 5.00-29.50t-1.00-28.50q 41.00,14.00 61.00,43.00q 41.00,53.00 19.00,129.00l-283.00,905.00q-18.00,66.00 -77.50,109.00t-127.50,43.00l-946.00,0.00 q-41.00,0.00 -79.50-14.50t-73.50-39.00t-61.50-58.00t-41.50-72.50q-25.00-68.00 -2.00-127.00zM 500.00,831.00q-10.00,39.00 26.00,39.00l 615.00,0.00 q 16.00,0.00 30.50-11.00t 18.50-28.00l 24.00-75.00 q 4.00-16.00 -3.00-27.50t-23.00-11.50l-615.00,0.00 q-16.00,0.00 -31.50,11.00t-19.50,28.00zM 569.00,602.00q-4.00,16.00 3.50,26.50t 23.50,10.50l 614.00,0.00 q 16.00,0.00 30.50-10.50t 21.50-26.50l 22.00-78.00q 4.00-16.00 -3.00-27.50t-24.00-11.50l-614.00,0.00 q-16.00,0.00 -30.50,11.50t-20.50,27.50z" ></path></svg>