<?xml version="1.0" encoding="utf-8"?> <!-- Generator: IcoMoon --> <!DOCTYPE svg PUBLIC "-//W3C//DTD SVG 1.1//EN" "http://www.w3.org/Graphics/SVG/1.1/DTD/svg11.dtd"> <svg width="1128" height="2048" viewBox="0 0 1128 2048" fill="#0"><path d="M0.00,791.00q0.00-117.00 44.00-220.50t 121.00-180.50t 180.50-121.00t 219.50-44.00q 117.00,0.00 219.50,44.00t 179.00,121.00t 120.50,180.50t 44.00,220.50q0.00,84.00 -24.50,159.50t-65.50,143.50l-379.00,661.00q-41.00,68.00 -95.00,68.00t-93.00-68.00l-381.00-663.00q-41.00-68.00 -65.50-143.00t-24.50-158.00zM 285.00,791.00q0.00,57.00 21.50,108.00t 60.50,89.00t 89.00,59.50 t 109.00,21.50q 57.00,0.00 108.50-21.50t 89.50-59.50t 59.50-89.00t 21.50-108.00t-21.50-108.50t-59.50-90.50t-89.00-60.50t-109.00-21.50q-59.00,0.00 -109.00,21.50t-89.00,60.50t-60.50,90.00t-21.50,109.00z" ></path></svg>