<?xml version="1.0" encoding="utf-8"?> <!-- Generator: IcoMoon --> <!DOCTYPE svg PUBLIC "-//W3C//DTD SVG 1.1//EN" "http://www.w3.org/Graphics/SVG/1.1/DTD/svg11.dtd"> <svg width="1593" height="2048" viewBox="0 0 1593 2048" fill="#0"><path d="M0.00,1141.00l0.00-236.00 q0.00-12.00 30.50-21.50t 68.50-15.50t 74.00-9.00t 48.00-5.00q 18.00-61.00 49.00-117.00q-55.00-82.00 -120.00-157.00l-7.00-15.00q0.00-8.00 28.00-38.50t 62.50-65.50t 66.50-62.50t 40.00-27.50q 2.00,0.00 26.50,18.50t 54.50,41.00t 56.50,43.00t 32.50,24.50q 29.00-16.00 58.50-26.50t 60.50-20.50q0.00-12.00 3.00-49.00t 9.00-75.00t 15.50-69.00t 21.50-31.00l 237.00,0.00 q 14.00,0.00 19.00,15.00 q 12.00,49.00 17.00,103.00t 14.00,106.00q 31.00,8.00 59.50,19.00t 56.50,28.00q 8.00-6.00 34.00-26.50t 55.50-43.00t 53.00-40.00t 29.50-17.50t 37.00,27.50t 65.00,62.50t 61.50,65.50t 27.50,38.50q0.00,4.00 -17.50,28.50t-39.00,53.50t-42.00,55.50t-24.50,32.50q 33.00,55.00 51.00,123.00q 49.00,10.00 103.50,13.00t 101.50,20.00q 16.00,4.00 16.00,18.00l0.00,236.00 q0.00,12.00 -29.50,21.50 t-68.50,15.50t-76.00,9.00t-49.00,5.00q-14.00,57.00 -47.00,117.00q 55.00,82.00 121.00,157.00l 6.00,15.00q0.00,8.00 -27.50,38.50t-62.50,65.50t-66.50,62.50t-40.50,27.50q-2.00,0.00 -26.50-18.50t-54.00-41.00t-56.00-43.00t-33.50-24.50q-29.00,16.00 -58.50,27.50t-59.50,19.50q-2.00,12.00 -5.50,49.50t-9.50,76.00t-14.00,69.50t-21.00,31.00l-237.00,0.00 q-14.00,0.00 -19.00-17.00 q-14.00-49.00 -19.00-103.00t-11.00-103.00q-61.00-18.00 -117.00-50.00q-41.00,31.00 -81.00,60.50t-79.00,62.50l-12.00,4.00q-6.00,0.00 -37.00-27.50t-64.50-62.50t-61.00-65.50t-27.50-38.50q0.00-2.00 16.00-26.50t 37.50-53.50t 42.00-55.50t 26.50-34.50q-33.00-55.00 -51.00-123.00q-51.00-10.00 -104.50-13.00t-100.50-20.00q-16.00-4.00 -16.00-18.00zM 557.00,1024.00q0.00,49.00 18.50,93.00t 51.00,77.00t 77.00,52.50 t 93.50,19.50t 93.00-19.50t 75.50-52.50t 51.00-77.00t 19.50-93.00t-19.50-92.00t-51.00-76.00t-75.50-51.50t-93.00-18.50t-93.50,18.50t-77.00,51.50t-51.00,76.00t-18.50,92.00z" ></path></svg>