<?xml version="1.0" encoding="utf-8"?> <!-- Generator: IcoMoon --> <!DOCTYPE svg PUBLIC "-//W3C//DTD SVG 1.1//EN" "http://www.w3.org/Graphics/SVG/1.1/DTD/svg11.dtd"> <svg width="1536" height="2048" viewBox="0 0 1536 2048" fill="#0"><path d="M 6.00,303.00q 20.00-47.00 70.00-47.00l 1382.00,0.00 q 51.00,0.00 72.00,47.00q 20.00,47.00 -17.00,84.00l-610.00,610.00l0.00,641.00 l 248.00,0.00 q 33.00,0.00 55.50,22.50t 22.50,53.50q0.00,33.00 -22.50,55.50t-55.50,22.50l-768.00,0.00 q-31.00,0.00 -53.50-22.50t-22.50-55.50q0.00-31.00 22.50-53.50t 53.50-22.50l 250.00,0.00 l0.00-641.00 l-610.00-610.00q-37.00-37.00 -17.00-84.00z" ></path></svg>