<?xml version="1.0" encoding="utf-8"?> <!-- Generator: IcoMoon --> <!DOCTYPE svg PUBLIC "-//W3C//DTD SVG 1.1//EN" "http://www.w3.org/Graphics/SVG/1.1/DTD/svg11.dtd"> <svg width="1536" height="2048" viewBox="0 0 1536 2048" fill="#0"><path d="M0.00,1096.00l0.00-144.00 q0.00-39.00 27.50-66.50t 66.50-27.50l 508.00,0.00 l0.00-506.00 q0.00-41.00 26.50-68.50t 67.50-27.50l 144.00,0.00 q 39.00,0.00 66.50,27.50t 27.50,66.50l0.00,508.00 l 508.00,0.00 q 39.00,0.00 66.50,27.50t 27.50,66.50l0.00,144.00 q0.00,39.00 -27.50,66.50t-66.50,27.50l-508.00,0.00 l0.00,506.00 q0.00,41.00 -27.50,68.50t-66.50,27.50l-144.00,0.00 q-39.00,0.00 -66.50-27.50t-27.50-66.50l0.00-508.00 l-506.00,0.00 q-41.00,0.00 -68.50-26.50t-27.50-67.50z" ></path></svg>