<?xml version="1.0" encoding="utf-8"?> <!-- Generator: IcoMoon --> <!DOCTYPE svg PUBLIC "-//W3C//DTD SVG 1.1//EN" "http://www.w3.org/Graphics/SVG/1.1/DTD/svg11.dtd"> <svg width="1843" height="2048" viewBox="0 0 1843 2048" fill="#0"><path d="M0.00,1792.00l0.00-1536.00 l 154.00,0.00 l0.00,1536.00 l-154.00,0.00 zM 227.00,1792.00l0.00-1536.00 l 37.00,0.00 l0.00,1536.00 l-37.00,0.00 zM 356.00,1792.00l0.00-1536.00 l 117.00,0.00 l0.00,1536.00 l-117.00,0.00 zM 545.00,1792.00l0.00-1536.00 l 78.00,0.00 l0.00,1536.00 l-78.00,0.00 zM 715.00,1792.00l0.00-1536.00 l 76.00,0.00 l0.00,1536.00 l-76.00,0.00 zM 903.00,1792.00l0.00-1536.00 l 37.00,0.00 l0.00,1536.00 l-37.00,0.00 zM 1014.00,1792.00l0.00-1536.00 l 153.00,0.00 l0.00,1536.00 l-153.00,0.00 zM 1221.00,1792.00l0.00-1536.00 l 77.00,0.00 l0.00,1536.00 l-77.00,0.00 zM 1409.00,1792.00l0.00-1536.00 l 39.00,0.00 l0.00,1536.00 l-39.00,0.00 zM 1579.00,1792.00l0.00-1536.00 l 37.00,0.00 l0.00,1536.00 l-37.00,0.00 zM 1690.00,1792.00l0.00-1536.00 l 153.00,0.00 l0.00,1536.00 l-153.00,0.00 z" ></path></svg>