<?xml version="1.0" encoding="utf-8"?> <!-- Generator: IcoMoon --> <!DOCTYPE svg PUBLIC "-//W3C//DTD SVG 1.1//EN" "http://www.w3.org/Graphics/SVG/1.1/DTD/svg11.dtd"> <svg width="1916" height="2048" viewBox="0 0 1916 2048" data-license="&amp;nbsp;" data-author="&amp;nbsp;" fill="#0"><path d="M0.00,1063.00q0.00-172.00 85.00-324.50t 221.00-266.50t 307.00-180.50t 345.00-66.50t 345.50,66.50t 307.50,180.50t 221.00,266.50t 85.00,326.50q0.00,182.00 -78.00,350.00l-27.00,60.00l-174.00,26.00q-27.00,104.00 -110.50,173.00t-196.50,69.00l0.00,41.00 q0.00,16.00 -12.00,27.50t-29.00,11.50l-80.00,0.00 q-16.00,0.00 -27.50-11.50t-11.50-27.50l0.00-719.00 q0.00-16.00 11.50-28.50 t 27.50-12.50l 80.00,0.00 q 16.00,0.00 28.50,12.50t 12.50,28.50l0.00,39.00 q 88.00,0.00 161.00,44.00t 114.00,116.00l 39.00-7.00q 33.00-90.00 32.00-192.00q0.00-125.00 -65.50-233.50t-170.00-190.50t-232.50-129.00t-251.00-47.00t-250.50,47.00t-232.00,128.00t-170.00,190.50t-65.50,232.50q0.00,104.00 32.00,194.00l 39.00,7.00q 41.00-72.00 114.00-116.00t 161.00-44.00l0.00-39.00 q0.00-16.00 12.00-28.50t 29.00-12.50l 80.00,0.00 q 16.00,0.00 27.00,12.50t 11.00,28.50l0.00,719.00 q0.00,16.00 -11.00,27.50t-27.00,11.50l-80.00,0.00 q-16.00,0.00 -28.50-11.50t-12.50-27.50l0.00-41.00 q-55.00,0.00 -106.50-18.50t-91.50-50.50t-68.50-76.00t-40.50-97.00l-175.00-26.00l-26.00-60.00q-78.00-168.00 -78.00-352.00z" ></path></svg>