<?xml version="1.0" encoding="utf-8"?> <!-- Generator: IcoMoon --> <!DOCTYPE svg PUBLIC "-//W3C//DTD SVG 1.1//EN" "http://www.w3.org/Graphics/SVG/1.1/DTD/svg11.dtd"> <svg width="1916" height="2048" viewBox="0 0 1916 2048" fill="#0"><path d="M0.00,991.00l0.00-180.00 q0.00-8.00 22.50-15.50t 52.00-11.50t 56.50-7.00t 37.00-3.00q 12.00-49.00 37.00-88.00q-23.00-31.00 -45.50-61.50t-46.50-59.50l-4.00-10.00q0.00-6.00 20.50-29.50t 47.00-50.00t 50.00-47.00t 29.50-20.50q 2.00,0.00 20.50,13.00t 41.00,30.50t 43.00,34.00t 24.50,20.50q 43.00-25.00 90.00-37.00q0.00-8.00 3.00-37.00t 7.00-57.50t 10.50-52.00t 16.50-23.50l 178.00,0.00 q 8.00,0.00 15.50,23.50t 11.50,52.00t 7.00,57.50 t 5.00,37.00q 45.00,12.00 86.00,35.00q 31.00-23.00 62.50-45.50t 60.50-46.50l 8.00-4.00q 4.00,0.00 27.50,21.50t 49.50,47.00t 47.50,49.00t 21.50,29.50q0.00,4.00 -13.50,22.50t-30.00,40.00t-32.00,41.00t-19.50,25.50q 23.00,39.00 39.00,92.00q 10.00,2.00 37.00,5.00t 55.50,8.50t 51.00,11.50t 22.50,14.00l0.00,178.00 q0.00,10.00 -22.50,16.50t-51.00,11.50t-56.50,7.00t-36.00,4.00 q-14.00,43.00 -37.00,88.00q 23.00,31.00 44.50,60.50t 48.50,58.50l 2.00,10.00q0.00,6.00 -20.50,30.00t-47.50,50.50t-50.50,47.00t-29.50,20.50q-2.00,0.00 -20.50-13.50t-41.00-31.00t-42.00-32.50t-25.50-20.00q-45.00,23.00 -88.00,37.00q0.00,10.00 -3.00,37.00t-8.00,56.50t-12.50,52.00t-15.50,22.50l-178.00,0.00 q-8.00,0.00 -15.50-22.50t-11.50-52.00t-7.00-56.00t-3.00-37.50 q-45.00-12.00 -88.00-37.00q-31.00,23.00 -61.50,46.50t-59.50,48.50l-10.00,2.00q-4.00,0.00 -27.50-20.50t-49.00-47.00t-46.00-50.50t-20.50-30.00q0.00-2.00 13.00-20.50t 29.50-40.00t 31.00-41.00t 18.50-25.50q-23.00-43.00 -39.00-94.00q-10.00-2.00 -37.00-5.00t-55.50-7.00t-51.00-10.50t-22.50-14.50zM 420.00,903.00q0.00,37.00 14.50,70.00t 39.00,57.50t 58.00,38.50t 70.50,14.00t 70.00-14.00t 57.50-38.50 t 38.50-57.50t 14.00-70.00t-14.00-70.50t-38.50-58.00t-57.50-39.00t-70.00-14.50q-76.00,0.00 -129.00,53.00t-53.00,129.00zM 1114.00,1419.00q0.00-6.00 13.50-13.00t 31.00-14.50t 33.50-12.50t 22.00-7.00q 4.00-23.00 9.50-39.00t 15.50-37.00q-4.00-4.00 -13.00-17.00t-18.50-27.50t-16.50-28.00t-7.00-17.50t 18.50-23.50t 43.00-41.00t 47.00-40.00t 28.50-24.50l 8.00-4.00q 4.00,0.00 16.50,8.50t 25.50,19.50t 25.50,21.50 t 16.50,14.50q 35.00-12.00 76.00-19.00q 2.00-6.00 9.00-21.50t 16.50-30.50t 17.50-27.50t 14.00-12.50q 4.00,0.00 34.00,7.00t 63.50,18.50t 60.50,23.50t 27.00,23.00q0.00,23.00 -5.50,47.00t-9.50,47.00q 16.00,12.00 28.50,26.50t 22.50,30.50q 25.00-2.00 49.50-3.00t 47.50-1.00q 8.00,0.00 18.00,26.50t 17.50,60.50t 12.50,64.50t 5.00,39.50q0.00,6.00 -13.50,13.00t-29.50,13.00t-32.50,12.50 t-22.50,8.50q-9.00,38.00 -23.00,71.00q 2.00,6.00 11.50,18.50t 18.50,27.00t 16.00,27.50t 7.00,18.00q0.00,4.00 -18.50,23.50t-43.00,41.00t-47.00,40.50t-28.50,26.00l-8.00,4.00q-4.00,0.00 -16.50-8.50t-25.50-19.50t-25.50-21.50t-16.50-14.50q-37.00,12.00 -78.00,19.00q-2.00,6.00 -9.00,21.50t-15.50,30.50t-16.50,27.50t-14.00,12.50t-35.00-7.50t-62.50-18.50 t-60.00-23.50t-26.50-22.50q0.00-23.00 5.00-47.50t 9.00-46.50q-16.00-12.00 -28.50-26.50t-22.50-30.50q-23.00,2.00 -45.50,3.00t-44.50,1.00l-14.50,0.00 t-8.50-11.00q-2.00-8.00 -8.00-35.50t-13.50-58.00t-12.50-55.50t-5.00-29.00zM 1192.00,528.00q0.00-6.00 12.50-12.00t 29.50-10.00t 33.50-6.00t 22.50-4.00q 10.00-33.00 31.00-64.00q-2.00-4.00 -8.00-17.50t-12.50-27.50t-11.50-25.50t-5.00-15.50 q0.00-6.00 21.50-22.50t 49.00-35.00t 51.50-32.50t 28.00-14.00t 13.00,9.00t 20.50,21.50t 20.50,23.50t 13.00,15.00q 14.00-4.00 28.50-6.00t 29.50,0.00l 14.00,0.00 q 2.00-4.00 11.00-16.50t 18.50-25.50t 17.50-23.50t 12.00-10.50t 30.00,11.50t 55.50,26.00t 53.00,28.50t 23.50,20.00q0.00,4.00 -4.00,15.50t-8.00,26.00t-8.50,27.50t-6.50,17.00q 20.00,25.00 39.00,60.00q 51.00,4.00 74.00,7.00t 29.00,18.50t 5.00,52.00 t 3.00,106.50q0.00,6.00 -12.50,12.50t-28.50,10.50t-32.50,6.00t-22.50,4.00q-13.00,36.00 -31.00,63.00q 2.00,4.00 8.00,16.50t 13.50,27.00t 12.50,26.50t 5.00,14.00q0.00,6.00 -22.50,23.50t-50.00,36.00t-51.50,33.00t-26.00,14.50q-4.00,0.00 -14.00-9.50t-21.50-21.50t-20.50-23.50t-13.00-15.50q-14.00,4.00 -28.50,6.00t-29.50,0.00l-14.00,0.00 q-4.00,4.00 -12.00,16.50t-17.50,26.00 t-18.50,23.50t-13.00,10.00t-30.00-11.00t-54.50-25.50t-52.00-29.00t-23.50-20.50q0.00-2.00 3.00-14.50t 8.00-26.50t 9.00-27.50t 6.00-17.50q-23.00-23.00 -38.00-59.00q-53.00-2.00 -75.00-5.00t-29.00-18.50t-5.00-52.50t-4.00-109.00zM 1397.00,1425.00q0.00,49.00 34.50,85.00t 84.50,36.00q 49.00,0.00 84.50-34.50t 35.50-86.50q0.00-49.00 -34.50-83.50t-85.50-34.50q-49.00,0.00 -84.00,34.50t-35.00,83.50z M 1446.00,586.00q0.00,47.00 31.50,78.50t 76.50,31.50q 47.00,0.00 79.00-31.50t 32.00-76.50q0.00-47.00 -31.50-79.00t-77.50-32.00q-47.00,0.00 -78.50,32.00t-31.50,77.00z" ></path></svg>