<?xml version="1.0" encoding="utf-8"?> <!-- Generator: IcoMoon --> <!DOCTYPE svg PUBLIC "-//W3C//DTD SVG 1.1//EN" "http://www.w3.org/Graphics/SVG/1.1/DTD/svg11.dtd"> <svg width="1843" height="2048" viewBox="0 0 1843 2048" fill="#0"><path d="M0.00,1753.00l0.00-260.00 q0.00-16.00 11.50-27.50t 27.50-11.50l 192.00,0.00 q 16.00,0.00 26.50,11.50t 10.50,27.50l0.00,260.00 q0.00,16.00 -10.00,27.50t-27.00,11.50l-192.00,0.00 q-39.00,0.00 -39.00-39.00zM 393.00,1753.00l0.00-434.00 q0.00-16.00 11.50-27.50t 27.50-11.50l 193.00,0.00 q 16.00,0.00 26.50,11.50t 10.50,27.50l0.00,434.00 q0.00,16.00 -10.50,27.50t-26.50,11.50l-193.00,0.00 q-16.00,0.00 -27.50-11.50t-11.50-27.50z M 786.00,1753.00l0.00-676.00 q0.00-16.00 11.50-27.50t 27.50-11.50l 193.00,0.00 q 16.00,0.00 27.50,11.50t 11.50,27.50l0.00,676.00 q0.00,16.00 -11.50,27.50t-27.50,11.50l-193.00,0.00 q-16.00,0.00 -27.50-11.50t-11.50-27.50zM 1182.00,1753.00l0.00-995.00 q0.00-16.00 10.00-27.50t 27.00-11.50l 192.00,0.00 q 16.00,0.00 27.50,11.00t 11.50,28.00l0.00,995.00 q0.00,16.00 -11.50,27.50t-27.50,11.50l-192.00,0.00 q-16.00,0.00 -26.50-11.50 t-10.50-27.50zM 1575.00,1753.00l0.00-1458.00 q0.00-39.00 39.00-39.00l 190.00,0.00 q 39.00,0.00 39.00,39.00l0.00,1458.00 q0.00,39.00 -39.00,39.00l-190.00,0.00 q-39.00,0.00 -39.00-39.00z" ></path></svg>