<?xml version="1.0" encoding="utf-8"?> <!-- Generator: IcoMoon --> <!DOCTYPE svg PUBLIC "-//W3C//DTD SVG 1.1//EN" "http://www.w3.org/Graphics/SVG/1.1/DTD/svg11.dtd"> <svg width="1566" height="2048" viewBox="0 0 1566 2048" fill="#0"><path d="M0.00,1735.00l0.00-387.00 q0.00-37.00 18.50-82.00t 48.00-86.00t 65.50-74.00t 71.00-43.00q 18.00-6.00 66.00-13.50t 102.50-14.50t 104.50-13.00t 77.00-10.00q-92.00-59.00 -144.50-153.50t-52.50-205.50q0.00-88.00 34.00-165.50t 91.50-136.00t 135.00-92.50t 165.50-34.00t 166.00,34.00t 136.50,92.50t 92.00,136.00t 33.50,165.50q0.00,109.00 -52.00,204.50t-144.00,154.50q 27.00,4.00 77.00,10.00t 104.00,13.00 t 101.00,14.50t 68.00,13.50q 35.00,10.00 70.50,42.00t 65.50,74.00t 48.50,87.00t 18.50,82.00l0.00,387.00 q-10.00,4.00 -22.50,14.00t-27.00,19.50t-27.50,16.50t-22.00,7.00l-1370.00,0.00 q-35.00,0.00 -53.00-21.50t-45.00-35.50z" ></path></svg>